HIERARCHY
ROOT Hips
{
	OFFSET 0.000000 100.481300 0.000000
	CHANNELS 6 Xposition Yposition Zposition Xrotation Yrotation Zrotation
	JOINT Spine
	{
		OFFSET -0.279200 12.230698 -2.892100
		CHANNELS 3 Xrotation Yrotation Zrotation
		JOINT Spine1
		{
			OFFSET -0.325700 14.269203 -3.374200
			CHANNELS 3 Xrotation Yrotation Zrotation
			JOINT Spine2
			{
				OFFSET -0.372300 16.307602 -0.352600
				CHANNELS 3 Xrotation Yrotation Zrotation
				JOINT Neck
				{
					OFFSET -0.418800 17.814194 8.416900
					CHANNELS 3 Xrotation Yrotation Zrotation
					JOINT Head
					{
						OFFSET 0.000000 7.031097 3.806800
						CHANNELS 3 Xrotation Yrotation Zrotation
						JOINT HeadTop_End
						{
							OFFSET 0.000000 24.646606 12.978600
							CHANNELS 3 Xrotation Yrotation Zrotation
							End Site
							{
								OFFSET 0.000000 27.854965 0.000000
							}
						}
					}
				}
				JOINT LeftShoulder
				{
					OFFSET 16.952999 14.495407 -7.737500
					CHANNELS 3 Xrotation Yrotation Zrotation
					JOINT LeftArm
					{
						OFFSET 9.308998 -2.777710 0.208600
						CHANNELS 3 Xrotation Yrotation Zrotation
						JOINT LeftForeArm
						{
							OFFSET 29.972298 0.000000 0.000000
							CHANNELS 3 Xrotation Yrotation Zrotation
							JOINT LeftHand
							{
								OFFSET 26.026505 0.000000 0.000000
								CHANNELS 3 Xrotation Yrotation Zrotation
								JOINT LeftHandThumb1
								{
									OFFSET 12.240501 -7.147949 9.207150
									CHANNELS 3 Xrotation Yrotation Zrotation
									JOINT LeftHandThumb2
									{
										OFFSET 4.138618 -2.389435 2.389433
										CHANNELS 3 Xrotation Yrotation Zrotation
										JOINT LeftHandThumb3
										{
											OFFSET 2.726913 -1.574387 1.574386
											CHANNELS 3 Xrotation Yrotation Zrotation
											JOINT LeftHandThumb4
											{
												OFFSET 3.941010 -2.275345 2.275342
												CHANNELS 3 Xrotation Yrotation Zrotation
												End Site
												{
													OFFSET -0.005798 5.087799 0.009903
												}
											}
										}
									}
								}
								JOINT LeftHandIndex1
								{
									OFFSET 24.424698 -1.985611 5.953459
									CHANNELS 3 Xrotation Yrotation Zrotation
									JOINT LeftHandIndex2
									{
										OFFSET 6.426697 0.000000 0.000000
										CHANNELS 3 Xrotation Yrotation Zrotation
										JOINT LeftHandIndex3
										{
											OFFSET 5.337898 0.000000 0.000000
											CHANNELS 3 Xrotation Yrotation Zrotation
											JOINT LeftHandIndex4
											{
												OFFSET 4.409401 0.000000 0.000000
												CHANNELS 3 Xrotation Yrotation Zrotation
												End Site
												{
													OFFSET 0.000000 4.409363 0.014373
												}
											}
										}
									}
								}
								JOINT LeftHandMiddle1
								{
									OFFSET 23.810104 0.000000 0.000000
									CHANNELS 3 Xrotation Yrotation Zrotation
									JOINT LeftHandMiddle2
									{
										OFFSET 7.176498 0.000000 0.000000
										CHANNELS 3 Xrotation Yrotation Zrotation
										JOINT LeftHandMiddle3
										{
											OFFSET 6.774902 0.000000 0.000000
											CHANNELS 3 Xrotation Yrotation Zrotation
											JOINT LeftHandMiddle4
											{
												OFFSET 5.403328 0.000000 0.000000
												CHANNELS 3 Xrotation Yrotation Zrotation
												End Site
												{
													OFFSET -0.027702 5.403244 0.017414
												}
											}
										}
									}
								}
								JOINT LeftHandRing1
								{
									OFFSET 22.908401 -0.839279 -6.020567
									CHANNELS 3 Xrotation Yrotation Zrotation
									JOINT LeftHandRing2
									{
										OFFSET 6.337502 0.000000 0.000000
										CHANNELS 3 Xrotation Yrotation Zrotation
										JOINT LeftHandRing3
										{
											OFFSET 5.779297 0.000000 0.000000
											CHANNELS 3 Xrotation Yrotation Zrotation
											JOINT LeftHandRing4
											{
												OFFSET 4.965698 0.000000 0.000000
												CHANNELS 3 Xrotation Yrotation Zrotation
												End Site
												{
													OFFSET 0.000000 4.965668 0.016186
												}
											}
										}
									}
								}
								JOINT LeftHandPinky1
								{
									OFFSET 20.037003 -1.530319 -10.950146
									CHANNELS 3 Xrotation Yrotation Zrotation
									JOINT LeftHandPinky2
									{
										OFFSET 5.254700 0.000000 0.000000
										CHANNELS 3 Xrotation Yrotation Zrotation
										JOINT LeftHandPinky3
										{
											OFFSET 4.810204 0.000000 0.000000
											CHANNELS 3 Xrotation Yrotation Zrotation
											JOINT LeftHandPinky4
											{
												OFFSET 3.647202 0.000000 0.000000
												CHANNELS 3 Xrotation Yrotation Zrotation
												End Site
												{
													OFFSET 0.000000 3.647186 0.011889
												}
											}
										}
									}
								}
							}
						}
					}
				}
				JOINT RightShoulder
				{
					OFFSET -15.141001 14.495407 -7.737500
					CHANNELS 3 Xrotation Yrotation Zrotation
					JOINT RightArm
					{
						OFFSET -9.308998 -2.777710 0.208500
						CHANNELS 3 Xrotation Yrotation Zrotation
						JOINT RightForeArm
						{
							OFFSET -29.972300 0.000000 0.000000
							CHANNELS 3 Xrotation Yrotation Zrotation
							JOINT RightHand
							{
								OFFSET -26.026505 0.000000 0.000000
								CHANNELS 3 Xrotation Yrotation Zrotation
								JOINT RightHandThumb1
								{
									OFFSET -12.240601 -7.148026 9.207092
									CHANNELS 3 Xrotation Yrotation Zrotation
									JOINT RightHandThumb2
									{
										OFFSET -4.138618 -2.389435 2.389433
										CHANNELS 3 Xrotation Yrotation Zrotation
										JOINT RightHandThumb3
										{
											OFFSET -2.726974 -1.574417 1.574421
											CHANNELS 3 Xrotation Yrotation Zrotation
											JOINT RightHandThumb4
											{
												OFFSET -3.941010 -2.275345 2.275343
												CHANNELS 3 Xrotation Yrotation Zrotation
												End Site
												{
													OFFSET 0.005814 5.087799 0.009927
												}
											}
										}
									}
								}
								JOINT RightHandIndex1
								{
									OFFSET -24.424698 -1.985657 5.953444
									CHANNELS 3 Xrotation Yrotation Zrotation
									JOINT RightHandIndex2
									{
										OFFSET -6.426697 0.000000 0.000000
										CHANNELS 3 Xrotation Yrotation Zrotation
										JOINT RightHandIndex3
										{
											OFFSET -5.337898 0.000000 0.000000
											CHANNELS 3 Xrotation Yrotation Zrotation
											JOINT RightHandIndex4
											{
												OFFSET -4.409401 0.000000 0.000000
												CHANNELS 3 Xrotation Yrotation Zrotation
												End Site
												{
													OFFSET 0.000000 4.409363 0.014408
												}
											}
										}
									}
								}
								JOINT RightHandMiddle1
								{
									OFFSET -23.810097 0.000000 0.000000
									CHANNELS 3 Xrotation Yrotation Zrotation
									JOINT RightHandMiddle2
									{
										OFFSET -7.176498 0.000000 0.000000
										CHANNELS 3 Xrotation Yrotation Zrotation
										JOINT RightHandMiddle3
										{
											OFFSET -6.774902 0.000000 0.000000
											CHANNELS 3 Xrotation Yrotation Zrotation
											JOINT RightHandMiddle4
											{
												OFFSET -5.403328 0.000000 0.000000
												CHANNELS 3 Xrotation Yrotation Zrotation
												End Site
												{
													OFFSET 0.027702 5.403244 0.017457
												}
											}
										}
									}
								}
								JOINT RightHandRing1
								{
									OFFSET -22.908302 -0.839325 -6.020576
									CHANNELS 3 Xrotation Yrotation Zrotation
									JOINT RightHandRing2
									{
										OFFSET -6.337502 0.000000 0.000000
										CHANNELS 3 Xrotation Yrotation Zrotation
										JOINT RightHandRing3
										{
											OFFSET -5.779297 0.000000 0.000000
											CHANNELS 3 Xrotation Yrotation Zrotation
											JOINT RightHandRing4
											{
												OFFSET -4.965698 0.000000 0.000000
												CHANNELS 3 Xrotation Yrotation Zrotation
												End Site
												{
													OFFSET 0.000000 4.965668 0.016226
												}
											}
										}
									}
								}
								JOINT RightHandPinky1
								{
									OFFSET -20.037003 -1.530334 -10.950259
									CHANNELS 3 Xrotation Yrotation Zrotation
									JOINT RightHandPinky2
									{
										OFFSET -5.254700 0.000000 0.000000
										CHANNELS 3 Xrotation Yrotation Zrotation
										JOINT RightHandPinky3
										{
											OFFSET -4.810204 0.000000 0.000000
											CHANNELS 3 Xrotation Yrotation Zrotation
											JOINT RightHandPinky4
											{
												OFFSET -3.647202 0.000000 0.000000
												CHANNELS 3 Xrotation Yrotation Zrotation
												End Site
												{
													OFFSET 0.000000 3.647186 0.011917
												}
											}
										}
									}
								}
							}
						}
					}
				}
			}
		}
	}
	JOINT LeftUpLeg
	{
		OFFSET 15.427100 -6.655098 0.678600
		CHANNELS 3 Xrotation Yrotation Zrotation
		JOINT LeftLeg
		{
			OFFSET 4.081073 -39.591068 13.024000
			CHANNELS 3 Xrotation Yrotation Zrotation
			JOINT LeftFoot
			{
				OFFSET -4.081074 -37.707932 -15.979700
				CHANNELS 3 Xrotation Yrotation Zrotation
				JOINT LeftToeBase
				{
					OFFSET 5.346399 -15.068900 20.645000
					CHANNELS 3 Xrotation Yrotation Zrotation
					JOINT LeftToe_End
					{
						OFFSET 2.754700 0.931300 11.300900
						CHANNELS 3 Xrotation Yrotation Zrotation
						End Site
						{
							OFFSET 0.000000 11.669021 0.000000
						}
					}
				}
			}
		}
	}
	JOINT RightUpLeg
	{
		OFFSET -15.569500 -6.655098 0.678600
		CHANNELS 3 Xrotation Yrotation Zrotation
		JOINT RightLeg
		{
			OFFSET -4.081825 -39.591045 13.023800
			CHANNELS 3 Xrotation Yrotation Zrotation
			JOINT RightFoot
			{
				OFFSET 4.081824 -37.707954 -15.979600
				CHANNELS 3 Xrotation Yrotation Zrotation
				JOINT RightToeBase
				{
					OFFSET -5.346400 -15.068900 20.645000
					CHANNELS 3 Xrotation Yrotation Zrotation
					JOINT RightToe_End
					{
						OFFSET -2.754700 0.931300 11.300900
						CHANNELS 3 Xrotation Yrotation Zrotation
						End Site
						{
							OFFSET 0.000000 11.669021 0.000000
						}
					}
				}
			}
		}
	}
}
MOTION
Frames: 4
Frame Time: 0.033333
2.195109 72.839005 -1.714688 -5.400172 -46.432087 -0.526812 9.420038 7.435520 -1.366542 2.187715 0.989895 -0.915630 2.202830 0.982772 -0.894152 0.084651 13.220562 4.538680 8.920927 20.138143 -4.130233 -0.000000 0.000000 -0.000001 1.117178 3.546353 -8.633309 -53.487003 4.935499 -51.503004 -0.000052 -106.358073 -0.000055 1.988599 -7.706155 -15.869256 -6.141221 -11.690801 -6.761680 9.914119 42.595508 3.409847 -0.422808 8.108103 27.509149 -0.000002 0.000001 -0.000001 0.255316 3.378217 -45.814341 5.654090 5.847757 -88.067448 2.162137 4.544810 -50.866382 -0.000002 0.000000 -0.000004 -0.461469 3.841597 -39.722693 6.450754 5.820360 -95.892851 2.182894 4.561578 -51.127736 -0.000000 -0.000001 -0.000005 0.469727 4.966830 -39.799451 8.181042 5.368620 -113.502998 3.200488 5.218116 -63.022968 0.000000 -0.000001 -0.000000 -3.762423 9.063683 -45.253825 5.342531 5.829006 -85.005304 8.716834 5.103333 -119.369181 0.000000 0.000001 -0.000000 3.036125 13.027200 -5.371408 -48.713722 27.172823 83.457084 0.000192 105.988273 -0.000179 -8.345369 17.548110 8.775685 -7.341102 13.749660 7.412321 9.855806 -44.489096 -3.903260 -0.115778 -14.513092 -28.973871 -0.000000 -0.000003 0.000001 -0.124378 -2.384788 45.108861 4.500586 -4.654538 88.071178 1.723225 -3.618372 50.920133 -0.000001 -0.000003 -0.000001 -0.761627 -2.932907 39.031058 5.133892 -4.632756 95.881663 1.739749 -3.631699 51.181384 0.000001 -0.000000 0.000001 0.154758 -4.068816 39.122664 6.509730 -4.273593 113.462891 2.549584 -4.153923 63.067337 -0.000001 0.000001 0.000001 -4.198873 -8.025507 44.637766 4.252916 -4.639633 85.014818 6.935968 -4.062622 119.322298 -0.000001 0.000000 -0.000000 -34.255475 5.085942 20.300789 56.771665 -7.633999 3.672673 -20.133007 -7.078551 -17.222810 -1.594039 -0.000007 0.000002 -0.000000 -0.000002 -0.000000 -19.408607 -8.980189 -34.667595 57.007983 -2.876370 -4.766536 -26.306513 -10.338658 26.246325 -0.013007 -0.000001 0.000001 -0.000000 -0.000001 -0.000000 
2.445685 72.771400 -1.605831 -6.282523 -46.752283 -1.190477 9.240142 6.973809 -1.382222 3.008880 0.992601 -1.183771 3.022399 0.984959 -1.164720 0.447784 12.393175 4.294020 7.842429 21.269750 -3.965183 -0.000001 0.000000 0.000000 0.861761 3.014194 -7.568237 -51.125633 5.468811 -51.801360 -0.000055 -107.694072 -0.000052 1.217437 -7.837738 -15.124723 -6.141221 -11.690796 -6.761679 9.914128 42.595501 3.409850 -0.422807 8.108106 27.509147 -0.000001 0.000001 -0.000000 0.255316 3.378218 -45.814341 5.654090 5.847759 -88.067455 2.162139 4.544810 -50.866382 -0.000000 0.000001 0.000000 -0.461470 3.841597 -39.722690 6.450747 5.820363 -95.892851 2.182892 4.561572 -51.127736 -0.000001 -0.000001 -0.000002 0.469728 4.966829 -39.799451 8.181042 5.368617 -113.502998 3.200489 5.218114 -63.022968 0.000000 0.000002 -0.000001 -3.762423 9.063682 -45.253818 5.342526 5.829006 -85.005304 8.716835 5.103332 -119.369181 -0.000002 -0.000000 -0.000002 3.697702 13.896421 -4.622590 -49.016911 27.823296 81.043029 0.000076 106.349153 -0.000078 -9.700500 17.390881 9.237965 -7.341103 13.749659 7.412319 9.855803 -44.489100 -3.903248 -0.115779 -14.513092 -28.973871 0.000000 -0.000002 -0.000002 -0.124375 -2.384786 45.108864 4.500583 -4.654540 88.071171 1.723224 -3.618372 50.920133 -0.000001 -0.000001 0.000004 -0.761624 -2.932906 39.031068 5.133890 -4.632757 95.881663 1.739750 -3.631701 51.181387 -0.000000 -0.000004 0.000002 0.154760 -4.068815 39.122658 6.509733 -4.273593 113.462891 2.549582 -4.153924 63.067337 -0.000000 -0.000000 0.000002 -4.198871 -8.025508 44.637769 4.252923 -4.639633 85.014818 6.935968 -4.062620 119.322298 -0.000000 -0.000000 -0.000000 -33.526708 5.190111 19.995573 57.020069 -7.201141 4.029736 -20.635880 -7.006142 -17.400873 -1.658991 0.000003 0.000001 -0.000000 -0.000002 -0.000000 -19.336894 -8.971305 -34.991063 57.038452 -2.455640 -4.792980 -26.102668 -10.055454 25.983091 -0.218254 -0.000018 0.000006 -0.000000 -0.000001 -0.000000 
2.836231 72.585564 -1.284560 -7.601070 -46.624756 -2.170175 9.090891 6.403992 -1.357707 3.971320 0.873041 -1.530657 3.984996 0.861546 -1.515696 0.729658 11.405328 4.229072 6.971817 22.122870 -3.539133 0.000001 0.000000 -0.000000 0.547687 2.344364 -6.117760 -48.639454 5.898974 -52.316561 0.000087 -108.940937 0.000097 0.449112 -8.619035 -14.347560 -6.141217 -11.690799 -6.761678 9.914125 42.595505 3.409846 -0.422804 8.108097 27.509152 0.000001 -0.000003 0.000002 0.255318 3.378216 -45.814341 5.654089 5.847756 -88.067448 2.162138 4.544807 -50.866386 0.000001 0.000001 -0.000001 -0.461467 3.841594 -39.722690 6.450749 5.820363 -95.892851 2.182892 4.561572 -51.127733 -0.000001 0.000000 -0.000003 0.469731 4.966827 -39.799451 8.181042 5.368621 -113.502998 3.200489 5.218117 -63.022968 -0.000000 0.000001 -0.000001 -3.762423 9.063682 -45.253825 5.342529 5.829004 -85.005304 8.716837 5.103334 -119.369181 0.000002 0.000000 0.000001 4.382903 14.909200 -3.615738 -49.443063 28.478812 78.163544 0.000080 106.598236 -0.000099 -11.433157 17.220959 9.971613 -7.341104 13.749661 7.412324 9.855802 -44.489096 -3.903251 -0.115781 -14.513090 -28.973871 -0.000001 -0.000001 -0.000002 -0.124377 -2.384788 45.108864 4.500586 -4.654539 88.071164 1.723227 -3.618376 50.920126 -0.000000 -0.000000 0.000001 -0.761626 -2.932909 39.031068 5.133892 -4.632757 95.881663 1.739746 -3.631699 51.181381 -0.000001 0.000003 0.000003 0.154759 -4.068815 39.122664 6.509728 -4.273594 113.462891 2.549585 -4.153926 63.067337 0.000002 0.000002 -0.000002 -4.198872 -8.025510 44.637769 4.252923 -4.639632 85.014818 6.935967 -4.062624 119.322298 -0.000000 -0.000000 -0.000001 -32.777388 4.749302 19.091897 57.810803 -6.657985 4.530646 -21.020785 -6.778062 -17.424350 -1.693473 -0.000007 0.000005 0.000000 -0.000000 0.000000 -18.768521 -9.293382 -35.824520 56.944674 -1.947345 -4.658207 -25.858958 -9.733170 25.950175 -0.852985 -0.000010 0.000001 0.000000 -0.000000 -0.000000 
3.404343 72.510445 -0.928735 -8.225275 -45.711738 -2.884816 8.940354 5.783252 -1.180809 4.952026 0.656887 -1.722616 4.967234 0.636536 -1.712884 0.519500 10.249831 4.467246 5.958993 22.654380 -2.987754 0.000001 0.000000 0.000000 0.097995 1.712483 -3.802442 -46.078140 6.050207 -54.043913 0.000048 -109.705542 0.000046 -0.464093 -9.489482 -13.219642 -6.141219 -11.690799 -6.761680 9.914126 42.595512 3.409840 -0.422805 8.108100 27.509150 0.000003 0.000002 -0.000001 0.255317 3.378218 -45.814341 5.654090 5.847757 -88.067448 2.162138 4.544807 -50.866379 0.000000 -0.000001 -0.000003 -0.461467 3.841594 -39.722690 6.450750 5.820362 -95.892851 2.182893 4.561574 -51.127733 -0.000003 -0.000002 -0.000004 0.469731 4.966829 -39.799451 8.181039 5.368621 -113.502998 3.200488 5.218115 -63.022975 0.000000 -0.000000 0.000001 -3.762420 9.063683 -45.253825 5.342525 5.829005 -85.005304 8.716837 5.103332 -119.369181 0.000002 -0.000000 0.000001 5.024460 15.738574 -2.270153 -50.125689 29.657764 74.389223 0.000135 106.923593 -0.000141 -13.174711 17.087991 10.558092 -7.341100 13.749660 7.412322 9.855802 -44.489096 -3.903263 -0.115781 -14.513086 -28.973867 -0.000003 -0.000004 0.000002 -0.124378 -2.384786 45.108857 4.500585 -4.654539 88.071171 1.723223 -3.618371 50.920133 -0.000001 -0.000000 -0.000001 -0.761626 -2.932906 39.031065 5.133893 -4.632756 95.881663 1.739747 -3.631696 51.181384 0.000001 -0.000002 -0.000000 0.154759 -4.068815 39.122664 6.509731 -4.273596 113.462891 2.549582 -4.153926 63.067337 -0.000002 0.000000 -0.000002 -4.198872 -8.025507 44.637766 4.252921 -4.639635 85.014818 6.935968 -4.062622 119.322285 -0.000002 -0.000000 -0.000002 -32.941736 3.648953 17.427670 58.998805 -5.458049 5.439185 -21.638704 -6.753286 -16.432663 -1.899831 -0.000017 -0.000007 0.000000 -0.000001 -0.000000 -17.899878 -9.583082 -36.143541 56.580256 -1.473215 -4.173825 -25.439707 -10.241669 25.518750 -2.284517 -0.000021 -0.000004 -0.000000 -0.000000 0.000001 
